<mxfile host="app.diagrams.net" modified="2023-08-05T09:49:32.621Z" agent="Mozilla/5.0 (Windows NT 10.0; Win64; x64) AppleWebKit/537.36 (KHTML, like Gecko) Chrome/115.0.0.0 Safari/537.36 Edg/115.0.1901.183" version="21.6.1" etag="Svmb6dLuc0mi5kJEBk5t" type="github">
  <diagram name="第 1 页" id="m8p5ogGjaxmPA7oOIdEd">
    <mxGraphModel>
      <root>
        <mxCell id="0" />
        <mxCell id="1" parent="0" />
      </root>
    </mxGraphModel>
  </diagram>
</mxfile>
